<?xml version="1.0" standalone="no"?>
<svg xmlns:xlink="http://www.w3.org/1999/xlink" id="wave" style="transform:rotate(180deg); transition: 0.3s" viewBox="0 0 1440 100" version="1.1" xmlns="http://www.w3.org/2000/svg"><defs><linearGradient id="sw-gradient-0" x1="0" x2="0" y1="1" y2="0"><stop stop-color="rgba(255, 255, 255, 1)" offset="0%"/><stop stop-color="rgba(255, 255, 255, 1)" offset="100%"/></linearGradient></defs><path style="transform:translate(0, 0px); opacity:1" fill="url(#sw-gradient-0)" d="M0,40L14.1,40C28.2,40,56,40,85,35C112.9,30,141,20,169,21.7C197.6,23,226,37,254,43.3C282.4,50,311,50,339,45C367.1,40,395,30,424,36.7C451.8,43,480,67,508,73.3C536.5,80,565,70,593,60C621.2,50,649,40,678,43.3C705.9,47,734,63,762,60C790.6,57,819,33,847,20C875.3,7,904,3,932,11.7C960,20,988,40,1016,45C1044.7,50,1073,40,1101,43.3C1129.4,47,1158,63,1186,66.7C1214.1,70,1242,60,1271,61.7C1298.8,63,1327,77,1355,70C1383.5,63,1412,37,1440,33.3C1468.2,30,1496,50,1525,48.3C1552.9,47,1581,23,1609,26.7C1637.6,30,1666,60,1694,65C1722.4,70,1751,50,1779,38.3C1807.1,27,1835,23,1864,31.7C1891.8,40,1920,60,1948,70C1976.5,80,2005,80,2019,80L2032.9,80L2032.9,100L2018.8,100C2004.7,100,1976,100,1948,100C1920,100,1892,100,1864,100C1835.3,100,1807,100,1779,100C1750.6,100,1722,100,1694,100C1665.9,100,1638,100,1609,100C1581.2,100,1553,100,1525,100C1496.5,100,1468,100,1440,100C1411.8,100,1384,100,1355,100C1327.1,100,1299,100,1271,100C1242.4,100,1214,100,1186,100C1157.6,100,1129,100,1101,100C1072.9,100,1045,100,1016,100C988.2,100,960,100,932,100C903.5,100,875,100,847,100C818.8,100,791,100,762,100C734.1,100,706,100,678,100C649.4,100,621,100,593,100C564.7,100,536,100,508,100C480,100,452,100,424,100C395.3,100,367,100,339,100C310.6,100,282,100,254,100C225.9,100,198,100,169,100C141.2,100,113,100,85,100C56.5,100,28,100,14,100L0,100Z"/></svg>