<?xml version="1.0" standalone="no"?>
<svg xmlns:xlink="http://www.w3.org/1999/xlink" id="wave" style="transform:rotate(0deg); transition: 0.3s" viewBox="0 0 1440 360" version="1.1" xmlns="http://www.w3.org/2000/svg"><defs><linearGradient id="sw-gradient-0" x1="0" x2="0" y1="1" y2="0"><stop stop-color="rgba(255, 255, 255, 1)" offset="0%"/><stop stop-color="rgba(255, 255, 255, 1)" offset="100%"/></linearGradient></defs><path style="transform:translate(0, 0px); opacity:1" fill="url(#sw-gradient-0)" d="M0,108L48,114C96,120,192,132,288,150C384,168,480,192,576,174C672,156,768,96,864,84C960,72,1056,108,1152,144C1248,180,1344,216,1440,216C1536,216,1632,180,1728,162C1824,144,1920,144,2016,168C2112,192,2208,240,2304,270C2400,300,2496,312,2592,318C2688,324,2784,324,2880,276C2976,228,3072,132,3168,84C3264,36,3360,36,3456,72C3552,108,3648,180,3744,228C3840,276,3936,300,4032,306C4128,312,4224,300,4320,246C4416,192,4512,96,4608,54C4704,12,4800,24,4896,24C4992,24,5088,12,5184,30C5280,48,5376,96,5472,138C5568,180,5664,216,5760,234C5856,252,5952,252,6048,234C6144,216,6240,180,6336,174C6432,168,6528,192,6624,174C6720,156,6816,96,6864,66L6912,36L6912,360L6864,360C6816,360,6720,360,6624,360C6528,360,6432,360,6336,360C6240,360,6144,360,6048,360C5952,360,5856,360,5760,360C5664,360,5568,360,5472,360C5376,360,5280,360,5184,360C5088,360,4992,360,4896,360C4800,360,4704,360,4608,360C4512,360,4416,360,4320,360C4224,360,4128,360,4032,360C3936,360,3840,360,3744,360C3648,360,3552,360,3456,360C3360,360,3264,360,3168,360C3072,360,2976,360,2880,360C2784,360,2688,360,2592,360C2496,360,2400,360,2304,360C2208,360,2112,360,2016,360C1920,360,1824,360,1728,360C1632,360,1536,360,1440,360C1344,360,1248,360,1152,360C1056,360,960,360,864,360C768,360,672,360,576,360C480,360,384,360,288,360C192,360,96,360,48,360L0,360Z"/></svg>